+<?xml version="1.0" standalone="no"?>
<!DOCTYPE svg PUBLIC "-//W3C//DTD SVG 20010904//EN"
 "http://www.w3.org/TR/2001/REC-SVG-20010904/DTD/svg10.dtd">
<svg version="1.0" xmlns="http://www.w3.org/2000/svg"
 width="20.000000pt" height="17.000000pt" viewBox="0 0 20.000000 17.000000"
 preserveAspectRatio="xMidYMid meet">

<g transform="translate(0.000000,17.000000) scale(0.100000,-0.100000)"
fill="#000000" stroke="none">
<path d="M4 147 c-3 -8 -4 -41 -2 -73 l3 -59 95 0 95 0 0 70 0 70 -93 3 c-72
2 -94 0 -98 -11z m176 -12 c0 -12 -16 -15 -80 -15 -64 0 -80 3 -80 15 0 12 16
15 80 15 64 0 80 -3 80 -15z m0 -80 l0 -35 -80 0 -80 0 0 35 0 35 80 0 80 0 0
-35z"/>
</g>
</svg>