<?xml version="1.0" standalone="no"?>
<!DOCTYPE svg PUBLIC "-//W3C//DTD SVG 20010904//EN"
 "http://www.w3.org/TR/2001/REC-SVG-20010904/DTD/svg10.dtd">
<svg version="1.0" xmlns="http://www.w3.org/2000/svg"
 width="22.000000pt" height="14.000000pt" viewBox="0 0 22.000000 14.000000"
 preserveAspectRatio="xMidYMid meet">

<g transform="translate(0.000000,14.000000) scale(0.100000,-0.100000)"
fill="#000000" stroke="none">
<path d="M50 124 c-11 -12 -10 -18 3 -32 16 -15 18 -15 34 0 13 14 14 20 3 32
-16 20 -24 20 -40 0z"/>
<path d="M130 124 c-11 -12 -10 -18 3 -32 16 -15 18 -15 34 0 13 14 14 20 3
32 -16 20 -24 20 -40 0z"/>
<path d="M43 53 c-26 -5 -47 -28 -38 -43 8 -13 122 -13 131 1 14 24 -45 51
-93 42z"/>
<path d="M158 28 c3 -21 10 -28 28 -28 46 0 39 43 -9 52 -20 4 -23 1 -19 -24z"/>
</g>
</svg>