<?xml version="1.0" standalone="no"?>
<!DOCTYPE svg PUBLIC "-//W3C//DTD SVG 20010904//EN"
 "http://www.w3.org/TR/2001/REC-SVG-20010904/DTD/svg10.dtd">
<svg version="1.0" xmlns="http://www.w3.org/2000/svg"
 width="20.000000pt" height="19.000000pt" viewBox="0 0 20.000000 19.000000"
 preserveAspectRatio="xMidYMid meet">

<g transform="translate(0.000000,19.000000) scale(0.100000,-0.100000)"
fill="#000000" stroke="none">
<path d="M86 145 c-5 -20 -13 -25 -36 -25 -35 0 -39 -13 -10 -33 16 -11 19
-21 14 -47 l-7 -32 26 17 c20 13 30 14 46 6 29 -16 34 -14 27 15 -5 20 -2 30
14 41 28 20 25 33 -9 33 -22 0 -30 6 -35 25 -4 14 -10 25 -15 25 -5 0 -12 -11
-15 -25z"/>
</g>
</svg>